<?xml version="1.0" encoding="UTF-8" standalone="no"?>
<!DOCTYPE svg PUBLIC "-//W3C//DTD SVG 1.1//EN"
 "http://www.w3.org/Graphics/SVG/1.1/DTD/svg11.dtd">
<!-- Generated by graphviz version 2.38.0 (20140413.2041)
 -->
<!-- Title: G Pages: 1 -->
<svg width="1077pt" height="2124pt"
 viewBox="0.00 0.00 1077.27 2124.00" xmlns="http://www.w3.org/2000/svg" xmlns:xlink="http://www.w3.org/1999/xlink">
<g id="graph0" class="graph" transform="scale(1 1) rotate(0) translate(4 2120)">
<title>G</title>
<polygon fill="white" stroke="none" points="-4,4 -4,-2120 1073.27,-2120 1073.27,4 -4,4"/>
<g id="clust1" class="cluster"><title>cluster_Global</title>
<path fill="none" stroke="gray" d="M20,-44C20,-44 1049.27,-44 1049.27,-44 1055.27,-44 1061.27,-50 1061.27,-56 1061.27,-56 1061.27,-2096 1061.27,-2096 1061.27,-2102 1055.27,-2108 1049.27,-2108 1049.27,-2108 20,-2108 20,-2108 14,-2108 8,-2102 8,-2096 8,-2096 8,-56 8,-56 8,-50 14,-44 20,-44"/>
<text text-anchor="middle" x="534.636" y="-2095.2" font-family="Times,serif" font-size="11.00" fill="gray">Global</text>
</g>
<g id="clust2" class="cluster"><title>cluster_\Anax</title>
<path fill="none" stroke="gray" d="M28,-52C28,-52 1041.27,-52 1041.27,-52 1047.27,-52 1053.27,-58 1053.27,-64 1053.27,-64 1053.27,-2068 1053.27,-2068 1053.27,-2074 1047.27,-2080 1041.27,-2080 1041.27,-2080 28,-2080 28,-2080 22,-2080 16,-2074 16,-2068 16,-2068 16,-64 16,-64 16,-58 22,-52 28,-52"/>
<text text-anchor="middle" x="534.636" y="-2067.2" font-family="Times,serif" font-size="11.00" fill="gray">Anax</text>
</g>
<g id="clust3" class="cluster"><title>cluster_\Anax\Validate</title>
<path fill="none" stroke="gray" d="M899.771,-1980C899.771,-1980 968.771,-1980 968.771,-1980 974.771,-1980 980.771,-1986 980.771,-1992 980.771,-1992 980.771,-2040 980.771,-2040 980.771,-2046 974.771,-2052 968.771,-2052 968.771,-2052 899.771,-2052 899.771,-2052 893.771,-2052 887.771,-2046 887.771,-2040 887.771,-2040 887.771,-1992 887.771,-1992 887.771,-1986 893.771,-1980 899.771,-1980"/>
<text text-anchor="middle" x="934.271" y="-2039.2" font-family="Times,serif" font-size="11.00" fill="gray">Validate</text>
</g>
<g id="clust4" class="cluster"><title>cluster_\Anax\Loader</title>
<path fill="none" stroke="gray" d="M879.271,-1900C879.271,-1900 989.271,-1900 989.271,-1900 995.271,-1900 1001.27,-1906 1001.27,-1912 1001.27,-1912 1001.27,-1960 1001.27,-1960 1001.27,-1966 995.271,-1972 989.271,-1972 989.271,-1972 879.271,-1972 879.271,-1972 873.271,-1972 867.271,-1966 867.271,-1960 867.271,-1960 867.271,-1912 867.271,-1912 867.271,-1906 873.271,-1900 879.271,-1900"/>
<text text-anchor="middle" x="934.271" y="-1959.2" font-family="Times,serif" font-size="11.00" fill="gray">Loader</text>
</g>
<g id="clust5" class="cluster"><title>cluster_\Anax\Log</title>
<path fill="none" stroke="gray" d="M906.271,-1820C906.271,-1820 962.271,-1820 962.271,-1820 968.271,-1820 974.271,-1826 974.271,-1832 974.271,-1832 974.271,-1880 974.271,-1880 974.271,-1886 968.271,-1892 962.271,-1892 962.271,-1892 906.271,-1892 906.271,-1892 900.271,-1892 894.271,-1886 894.271,-1880 894.271,-1880 894.271,-1832 894.271,-1832 894.271,-1826 900.271,-1820 906.271,-1820"/>
<text text-anchor="middle" x="934.271" y="-1879.2" font-family="Times,serif" font-size="11.00" fill="gray">Log</text>
</g>
<g id="clust6" class="cluster"><title>cluster_\Anax\Exception</title>
<path fill="none" stroke="gray" d="M835.271,-1632C835.271,-1632 1033.27,-1632 1033.27,-1632 1039.27,-1632 1045.27,-1638 1045.27,-1644 1045.27,-1644 1045.27,-1800 1045.27,-1800 1045.27,-1806 1039.27,-1812 1033.27,-1812 1033.27,-1812 835.271,-1812 835.271,-1812 829.271,-1812 823.271,-1806 823.271,-1800 823.271,-1800 823.271,-1644 823.271,-1644 823.271,-1638 829.271,-1632 835.271,-1632"/>
<text text-anchor="middle" x="934.271" y="-1799.2" font-family="Times,serif" font-size="11.00" fill="gray">Exception</text>
</g>
<g id="clust7" class="cluster"><title>cluster_\Anax\View</title>
<path fill="none" stroke="gray" d="M865.771,-1498C865.771,-1498 1002.77,-1498 1002.77,-1498 1008.77,-1498 1014.77,-1504 1014.77,-1510 1014.77,-1510 1014.77,-1612 1014.77,-1612 1014.77,-1618 1008.77,-1624 1002.77,-1624 1002.77,-1624 865.771,-1624 865.771,-1624 859.771,-1624 853.771,-1618 853.771,-1612 853.771,-1612 853.771,-1510 853.771,-1510 853.771,-1504 859.771,-1498 865.771,-1498"/>
<text text-anchor="middle" x="934.271" y="-1611.2" font-family="Times,serif" font-size="11.00" fill="gray">View</text>
</g>
<g id="clust8" class="cluster"><title>cluster_\Anax\Flash</title>
<path fill="none" stroke="gray" d="M892.771,-1418C892.771,-1418 975.771,-1418 975.771,-1418 981.771,-1418 987.771,-1424 987.771,-1430 987.771,-1430 987.771,-1478 987.771,-1478 987.771,-1484 981.771,-1490 975.771,-1490 975.771,-1490 892.771,-1490 892.771,-1490 886.771,-1490 880.771,-1484 880.771,-1478 880.771,-1478 880.771,-1430 880.771,-1430 880.771,-1424 886.771,-1418 892.771,-1418"/>
<text text-anchor="middle" x="934.271" y="-1477.2" font-family="Times,serif" font-size="11.00" fill="gray">Flash</text>
</g>
<g id="clust9" class="cluster"><title>cluster_\Anax\DI</title>
<path fill="none" stroke="gray" d="M36,-935C36,-935 736.63,-935 736.63,-935 742.63,-935 748.63,-941 748.63,-947 748.63,-947 748.63,-1211 748.63,-1211 748.63,-1217 742.63,-1223 736.63,-1223 736.63,-1223 36,-1223 36,-1223 30,-1223 24,-1217 24,-1211 24,-1211 24,-947 24,-947 24,-941 30,-935 36,-935"/>
<text text-anchor="middle" x="386.315" y="-1210.2" font-family="Times,serif" font-size="11.00" fill="gray">DI</text>
</g>
<g id="clust10" class="cluster"><title>cluster_\Anax\MVC</title>
<path fill="none" stroke="gray" d="M872.771,-1096C872.771,-1096 995.771,-1096 995.771,-1096 1001.77,-1096 1007.77,-1102 1007.77,-1108 1007.77,-1108 1007.77,-1318 1007.77,-1318 1007.77,-1324 1001.77,-1330 995.771,-1330 995.771,-1330 872.771,-1330 872.771,-1330 866.771,-1330 860.771,-1324 860.771,-1318 860.771,-1318 860.771,-1108 860.771,-1108 860.771,-1102 866.771,-1096 872.771,-1096"/>
<text text-anchor="middle" x="934.271" y="-1317.2" font-family="Times,serif" font-size="11.00" fill="gray">MVC</text>
</g>
<g id="clust11" class="cluster"><title>cluster_\Anax\HTMLForm</title>
<path fill="none" stroke="gray" d="M865.771,-908C865.771,-908 1002.77,-908 1002.77,-908 1008.77,-908 1014.77,-914 1014.77,-920 1014.77,-920 1014.77,-1076 1014.77,-1076 1014.77,-1082 1008.77,-1088 1002.77,-1088 1002.77,-1088 865.771,-1088 865.771,-1088 859.771,-1088 853.771,-1082 853.771,-1076 853.771,-1076 853.771,-920 853.771,-920 853.771,-914 859.771,-908 865.771,-908"/>
<text text-anchor="middle" x="934.271" y="-1075.2" font-family="Times,serif" font-size="11.00" fill="gray">HTMLForm</text>
</g>
<g id="clust12" class="cluster"><title>cluster_\Anax\Kernel</title>
<path fill="none" stroke="gray" d="M631.63,-1338C631.63,-1338 985.771,-1338 985.771,-1338 991.771,-1338 997.771,-1344 997.771,-1350 997.771,-1350 997.771,-1398 997.771,-1398 997.771,-1404 991.771,-1410 985.771,-1410 985.771,-1410 631.63,-1410 631.63,-1410 625.63,-1410 619.63,-1404 619.63,-1398 619.63,-1398 619.63,-1350 619.63,-1350 619.63,-1344 625.63,-1338 631.63,-1338"/>
<text text-anchor="middle" x="808.701" y="-1397.2" font-family="Times,serif" font-size="11.00" fill="gray">Kernel</text>
</g>
<g id="clust13" class="cluster"><title>cluster_\Anax\Session</title>
<path fill="none" stroke="gray" d="M902.771,-828C902.771,-828 965.771,-828 965.771,-828 971.771,-828 977.771,-834 977.771,-840 977.771,-840 977.771,-888 977.771,-888 977.771,-894 971.771,-900 965.771,-900 965.771,-900 902.771,-900 902.771,-900 896.771,-900 890.771,-894 890.771,-888 890.771,-888 890.771,-840 890.771,-840 890.771,-834 896.771,-828 902.771,-828"/>
<text text-anchor="middle" x="934.271" y="-887.2" font-family="Times,serif" font-size="11.00" fill="gray">Session</text>
</g>
<g id="clust14" class="cluster"><title>cluster_\Anax\ThemeEngine</title>
<path fill="none" stroke="gray" d="M609.63,-748C609.63,-748 975.771,-748 975.771,-748 981.771,-748 987.771,-754 987.771,-760 987.771,-760 987.771,-808 987.771,-808 987.771,-814 981.771,-820 975.771,-820 975.771,-820 609.63,-820 609.63,-820 603.63,-820 597.63,-814 597.63,-808 597.63,-808 597.63,-760 597.63,-760 597.63,-754 603.63,-748 609.63,-748"/>
<text text-anchor="middle" x="792.701" y="-807.2" font-family="Times,serif" font-size="11.00" fill="gray">ThemeEngine</text>
</g>
<g id="clust15" class="cluster"><title>cluster_\Anax\Content</title>
<path fill="none" stroke="gray" d="M889.271,-614C889.271,-614 979.271,-614 979.271,-614 985.271,-614 991.271,-620 991.271,-626 991.271,-626 991.271,-728 991.271,-728 991.271,-734 985.271,-740 979.271,-740 979.271,-740 889.271,-740 889.271,-740 883.271,-740 877.271,-734 877.271,-728 877.271,-728 877.271,-626 877.271,-626 877.271,-620 883.271,-614 889.271,-614"/>
<text text-anchor="middle" x="934.271" y="-727.2" font-family="Times,serif" font-size="11.00" fill="gray">Content</text>
</g>
<g id="clust16" class="cluster"><title>cluster_\Anax\Response</title>
<path fill="none" stroke="gray" d="M882.771,-534C882.771,-534 985.771,-534 985.771,-534 991.771,-534 997.771,-540 997.771,-546 997.771,-546 997.771,-594 997.771,-594 997.771,-600 991.771,-606 985.771,-606 985.771,-606 882.771,-606 882.771,-606 876.771,-606 870.771,-600 870.771,-594 870.771,-594 870.771,-546 870.771,-546 870.771,-540 876.771,-534 882.771,-534"/>
<text text-anchor="middle" x="934.271" y="-593.2" font-family="Times,serif" font-size="11.00" fill="gray">Response</text>
</g>
<g id="clust17" class="cluster"><title>cluster_\Anax\Request</title>
<path fill="none" stroke="gray" d="M886.271,-454C886.271,-454 982.271,-454 982.271,-454 988.271,-454 994.271,-460 994.271,-466 994.271,-466 994.271,-514 994.271,-514 994.271,-520 988.271,-526 982.271,-526 982.271,-526 886.271,-526 886.271,-526 880.271,-526 874.271,-520 874.271,-514 874.271,-514 874.271,-466 874.271,-466 874.271,-460 880.271,-454 886.271,-454"/>
<text text-anchor="middle" x="934.271" y="-513.2" font-family="Times,serif" font-size="11.00" fill="gray">Request</text>
</g>
<g id="clust18" class="cluster"><title>cluster_\Anax\Route</title>
<path fill="none" stroke="gray" d="M889.271,-320C889.271,-320 979.271,-320 979.271,-320 985.271,-320 991.271,-326 991.271,-332 991.271,-332 991.271,-434 991.271,-434 991.271,-440 985.271,-446 979.271,-446 979.271,-446 889.271,-446 889.271,-446 883.271,-446 877.271,-440 877.271,-434 877.271,-434 877.271,-332 877.271,-332 877.271,-326 883.271,-320 889.271,-320"/>
<text text-anchor="middle" x="934.271" y="-433.2" font-family="Times,serif" font-size="11.00" fill="gray">Route</text>
</g>
<g id="clust19" class="cluster"><title>cluster_\Anax\Navigation</title>
<path fill="none" stroke="gray" d="M906.271,-240C906.271,-240 962.271,-240 962.271,-240 968.271,-240 974.271,-246 974.271,-252 974.271,-252 974.271,-300 974.271,-300 974.271,-306 968.271,-312 962.271,-312 962.271,-312 906.271,-312 906.271,-312 900.271,-312 894.271,-306 894.271,-300 894.271,-300 894.271,-252 894.271,-252 894.271,-246 900.271,-240 906.271,-240"/>
<text text-anchor="middle" x="934.271" y="-299.2" font-family="Times,serif" font-size="11.00" fill="gray">Navigation</text>
</g>
<g id="clust20" class="cluster"><title>cluster_\Anax\Url</title>
<path fill="none" stroke="gray" d="M911.271,-160C911.271,-160 957.271,-160 957.271,-160 963.271,-160 969.271,-166 969.271,-172 969.271,-172 969.271,-220 969.271,-220 969.271,-226 963.271,-232 957.271,-232 957.271,-232 911.271,-232 911.271,-232 905.271,-232 899.271,-226 899.271,-220 899.271,-220 899.271,-172 899.271,-172 899.271,-166 905.271,-160 911.271,-160"/>
<text text-anchor="middle" x="934.271" y="-219.2" font-family="Times,serif" font-size="11.00" fill="gray">Url</text>
</g>
<!-- \\Anax\\Validate\\CValidate -->
<g id="node1" class="node"><title>\\Anax\\Validate\\CValidate</title>
<polygon fill="none" stroke="black" points="972.771,-2024 895.771,-2024 895.771,-1988 972.771,-1988 972.771,-2024"/>
<text text-anchor="middle" x="934.271" y="-2003.2" font-family="Courier,monospace" font-size="11.00">CValidate</text>
</g>
<!-- \\Anax\\Loader\\CPsr4Autoloader -->
<g id="node2" class="node"><title>\\Anax\\Loader\\CPsr4Autoloader</title>
<polygon fill="none" stroke="black" points="993.271,-1944 875.271,-1944 875.271,-1908 993.271,-1908 993.271,-1944"/>
<text text-anchor="middle" x="934.271" y="-1923.2" font-family="Courier,monospace" font-size="11.00">CPsr4Autoloader</text>
</g>
<!-- \\Anax\\Log\\CLogger -->
<g id="node3" class="node"><title>\\Anax\\Log\\CLogger</title>
<polygon fill="none" stroke="black" points="966.271,-1864 902.271,-1864 902.271,-1828 966.271,-1828 966.271,-1864"/>
<text text-anchor="middle" x="934.271" y="-1843.2" font-family="Courier,monospace" font-size="11.00">CLogger</text>
</g>
<!-- \\Anax\\Exception\\InternalServerErrorException -->
<g id="node4" class="node"><title>\\Anax\\Exception\\InternalServerErrorException</title>
<polygon fill="none" stroke="black" points="1037.27,-1784 831.271,-1784 831.271,-1748 1037.27,-1748 1037.27,-1784"/>
<text text-anchor="middle" x="934.271" y="-1763.2" font-family="Courier,monospace" font-size="11.00">InternalServerErrorException</text>
</g>
<!-- \\Anax\\Exception -->
<g id="node39" class="node"><title>\\Anax\\Exception</title>
<polygon fill="none" stroke="black" points="693.13,-1703 616.13,-1703 616.13,-1667 693.13,-1667 693.13,-1703"/>
<text text-anchor="middle" x="654.63" y="-1682.2" font-family="Courier,monospace" font-size="11.00">Exception</text>
</g>
<!-- \\Anax\\Exception\\InternalServerErrorException&#45;&gt;\\Anax\\Exception -->
<g id="edge1" class="edge"><title>\\Anax\\Exception\\InternalServerErrorException&#45;&gt;\\Anax\\Exception</title>
<path fill="none" stroke="black" d="M856.751,-1747.96C845.49,-1745.09 834.055,-1742.06 823.271,-1739 782.305,-1727.39 736.303,-1712.43 702.865,-1701.2"/>
<polygon fill="none" stroke="black" points="703.942,-1697.87 693.347,-1698 701.705,-1704.51 703.942,-1697.87"/>
</g>
<!-- \\Anax\\Exception\\NotFoundException -->
<g id="node5" class="node"><title>\\Anax\\Exception\\NotFoundException</title>
<polygon fill="none" stroke="black" points="999.771,-1730 868.771,-1730 868.771,-1694 999.771,-1694 999.771,-1730"/>
<text text-anchor="middle" x="934.271" y="-1709.2" font-family="Courier,monospace" font-size="11.00">NotFoundException</text>
</g>
<!-- \\Anax\\Exception\\NotFoundException&#45;&gt;\\Anax\\Exception -->
<g id="edge4" class="edge"><title>\\Anax\\Exception\\NotFoundException&#45;&gt;\\Anax\\Exception</title>
<path fill="none" stroke="black" d="M868.527,-1705.7C818.133,-1700.8 749.319,-1694.11 703.73,-1689.68"/>
<polygon fill="none" stroke="black" points="703.811,-1686.17 693.519,-1688.68 703.133,-1693.14 703.811,-1686.17"/>
</g>
<!-- \\Anax\\Exception\\ForbiddenException -->
<g id="node6" class="node"><title>\\Anax\\Exception\\ForbiddenException</title>
<polygon fill="none" stroke="black" points="1003.27,-1676 865.271,-1676 865.271,-1640 1003.27,-1640 1003.27,-1676"/>
<text text-anchor="middle" x="934.271" y="-1655.2" font-family="Courier,monospace" font-size="11.00">ForbiddenException</text>
</g>
<!-- \\Anax\\Exception\\ForbiddenException&#45;&gt;\\Anax\\Exception -->
<g id="edge16" class="edge"><title>\\Anax\\Exception\\ForbiddenException&#45;&gt;\\Anax\\Exception</title>
<path fill="none" stroke="black" d="M864.997,-1664.64C814.798,-1669.52 747.838,-1676.03 703.304,-1680.36"/>
<polygon fill="none" stroke="black" points="702.938,-1676.88 693.324,-1681.33 703.616,-1683.85 702.938,-1676.88"/>
</g>
<!-- \\Anax\\View\\CViewContainerBasic -->
<g id="node7" class="node"><title>\\Anax\\View\\CViewContainerBasic</title>
<polygon fill="none" stroke="black" points="1006.77,-1596 861.771,-1596 861.771,-1560 1006.77,-1560 1006.77,-1596"/>
<text text-anchor="middle" x="934.271" y="-1575.2" font-family="Courier,monospace" font-size="11.00">CViewContainerBasic</text>
</g>
<!-- \\Anax\\DI\\IInjectionAware -->
<g id="node16" class="node"><title>\\Anax\\DI\\IInjectionAware</title>
<polygon fill="none" stroke="black" points="713.63,-1087 595.63,-1087 595.63,-1051 713.63,-1051 713.63,-1087"/>
<text text-anchor="middle" x="654.63" y="-1066.2" font-family="Courier,monospace" font-size="11.00">IInjectionAware</text>
</g>
<!-- \\Anax\\View\\CViewContainerBasic&#45;&gt;\\Anax\\DI\\IInjectionAware -->
<g id="edge2" class="edge"><title>\\Anax\\View\\CViewContainerBasic&#45;&gt;\\Anax\\DI\\IInjectionAware</title>
<path fill="none" stroke="black" stroke-dasharray="1,5" d="M861.746,-1573.25C847.239,-1569.06 833.358,-1562.16 823.271,-1551 686.34,-1399.5 895.126,-1248.47 759.271,-1096 749.915,-1085.5 737.039,-1078.85 723.541,-1074.69"/>
<polygon fill="none" stroke="black" points="724.205,-1071.24 713.643,-1072.08 722.421,-1078.01 724.205,-1071.24"/>
</g>
<!-- \\Anax\\View\\CViewBasic -->
<g id="node8" class="node"><title>\\Anax\\View\\CViewBasic</title>
<polygon fill="none" stroke="black" points="976.271,-1542 892.271,-1542 892.271,-1506 976.271,-1506 976.271,-1542"/>
<text text-anchor="middle" x="934.271" y="-1521.2" font-family="Courier,monospace" font-size="11.00">CViewBasic</text>
</g>
<!-- \\Anax\\View\\CViewBasic&#45;&gt;\\Anax\\DI\\IInjectionAware -->
<g id="edge3" class="edge"><title>\\Anax\\View\\CViewBasic&#45;&gt;\\Anax\\DI\\IInjectionAware</title>
<path fill="none" stroke="black" stroke-dasharray="1,5" d="M892.059,-1523.26C868.567,-1520.58 840.47,-1513.14 823.271,-1494 703.528,-1360.73 879.772,-1228.58 759.271,-1096 749.862,-1085.65 737.031,-1079.05 723.603,-1074.89"/>
<polygon fill="none" stroke="black" points="724.323,-1071.46 713.76,-1072.27 722.526,-1078.22 724.323,-1071.46"/>
</g>
<!-- \\Anax\\Flash\\CFlashBasic -->
<g id="node9" class="node"><title>\\Anax\\Flash\\CFlashBasic</title>
<polygon fill="none" stroke="black" points="979.771,-1462 888.771,-1462 888.771,-1426 979.771,-1426 979.771,-1462"/>
<text text-anchor="middle" x="934.271" y="-1441.2" font-family="Courier,monospace" font-size="11.00">CFlashBasic</text>
</g>
<!-- \\Anax\\DI\\CDI -->
<g id="node10" class="node"><title>\\Anax\\DI\\CDI</title>
<polygon fill="none" stroke="black" points="243.495,-1087 189.495,-1087 189.495,-1051 243.495,-1051 243.495,-1087"/>
<text text-anchor="middle" x="216.495" y="-1066.2" font-family="Courier,monospace" font-size="11.00">CDI</text>
</g>
<!-- \\Anax\\DI\\IDI -->
<g id="node15" class="node"><title>\\Anax\\DI\\IDI</title>
<polygon fill="none" stroke="black" points="86,-1087 32,-1087 32,-1051 86,-1051 86,-1087"/>
<text text-anchor="middle" x="59" y="-1066.2" font-family="Courier,monospace" font-size="11.00">IDI</text>
</g>
<!-- \\Anax\\DI\\CDI&#45;&gt;\\Anax\\DI\\IDI -->
<g id="edge5" class="edge"><title>\\Anax\\DI\\CDI&#45;&gt;\\Anax\\DI\\IDI</title>
<path fill="none" stroke="black" stroke-dasharray="1,5" d="M189.468,-1069C163.904,-1069 124.687,-1069 96.1122,-1069"/>
<polygon fill="none" stroke="black" points="96.1113,-1065.5 86.1112,-1069 96.1112,-1072.5 96.1113,-1065.5"/>
</g>
<!-- \\Anax\\DI\\CDIFactoryTest -->
<g id="node11" class="node"><title>\\Anax\\DI\\CDIFactoryTest</title>
<polygon fill="none" stroke="black" points="710.13,-1195 599.13,-1195 599.13,-1159 710.13,-1159 710.13,-1195"/>
<text text-anchor="middle" x="654.63" y="-1174.2" font-family="Courier,monospace" font-size="11.00">CDIFactoryTest</text>
</g>
<!-- \\Anax\\DI\\CDIFactoryDefault -->
<g id="node14" class="node"><title>\\Anax\\DI\\CDIFactoryDefault</title>
<polygon fill="none" stroke="black" points="477.99,-1141 346.99,-1141 346.99,-1105 477.99,-1105 477.99,-1141"/>
<text text-anchor="middle" x="412.49" y="-1120.2" font-family="Courier,monospace" font-size="11.00">CDIFactoryDefault</text>
</g>
<!-- \\Anax\\DI\\CDIFactoryTest&#45;&gt;\\Anax\\DI\\CDIFactoryDefault -->
<g id="edge7" class="edge"><title>\\Anax\\DI\\CDIFactoryTest&#45;&gt;\\Anax\\DI\\CDIFactoryDefault</title>
<path fill="none" stroke="black" d="M598.838,-1164.68C566.066,-1157.31 523.973,-1147.84 488.186,-1139.8"/>
<polygon fill="none" stroke="black" points="488.796,-1136.35 478.272,-1137.57 487.26,-1143.18 488.796,-1136.35"/>
</g>
<!-- \\Anax\\DI\\CDIFactoryDocumentation -->
<g id="node12" class="node"><title>\\Anax\\DI\\CDIFactoryDocumentation</title>
<polygon fill="none" stroke="black" points="740.63,-1141 568.63,-1141 568.63,-1105 740.63,-1105 740.63,-1141"/>
<text text-anchor="middle" x="654.63" y="-1120.2" font-family="Courier,monospace" font-size="11.00">CDIFactoryDocumentation</text>
</g>
<!-- \\Anax\\DI\\CDIFactoryDocumentation&#45;&gt;\\Anax\\DI\\CDIFactoryDefault -->
<g id="edge12" class="edge"><title>\\Anax\\DI\\CDIFactoryDocumentation&#45;&gt;\\Anax\\DI\\CDIFactoryDefault</title>
<path fill="none" stroke="black" d="M568.628,-1123C542.539,-1123 514.029,-1123 488.647,-1123"/>
<polygon fill="none" stroke="black" points="488.349,-1119.5 478.349,-1123 488.349,-1126.5 488.349,-1119.5"/>
</g>
<!-- \\Anax\\DI\\CDIArray -->
<g id="node13" class="node"><title>\\Anax\\DI\\CDIArray</title>
<polygon fill="none" stroke="black" points="447.99,-1033 376.99,-1033 376.99,-997 447.99,-997 447.99,-1033"/>
<text text-anchor="middle" x="412.49" y="-1012.2" font-family="Courier,monospace" font-size="11.00">CDIArray</text>
</g>
<!-- \\Anax\\DI\\CDIArray&#45;&gt;\\Anax\\DI\\CDI -->
<g id="edge13" class="edge"><title>\\Anax\\DI\\CDIArray&#45;&gt;\\Anax\\DI\\CDI</title>
<path fill="none" stroke="black" d="M376.807,-1024.65C341.991,-1034.35 288.599,-1049.21 253.366,-1059.01"/>
<polygon fill="none" stroke="black" points="252.194,-1055.71 243.499,-1061.76 254.071,-1062.45 252.194,-1055.71"/>
</g>
<!-- \\ArrayAccess -->
<g id="node43" class="node"><title>\\ArrayAccess</title>
<ellipse fill="none" stroke="black" cx="216.495" cy="-18" rx="58.4896" ry="18"/>
<text text-anchor="middle" x="216.495" y="-14.3" font-family="Times,serif" font-size="14.00" fill="gray">\ArrayAccess</text>
</g>
<!-- \\Anax\\DI\\CDIArray&#45;&gt;\\ArrayAccess -->
<g id="edge14" class="edge"><title>\\Anax\\DI\\CDIArray&#45;&gt;\\ArrayAccess</title>
<path fill="none" stroke="black" stroke-dasharray="1,5" d="M407.957,-996.844C384.535,-876.474 251.707,-193.828 222.975,-46.1648"/>
<polygon fill="none" stroke="black" points="226.363,-45.2487 221.017,-36.1013 219.491,-46.5857 226.363,-45.2487"/>
</g>
<!-- \\Anax\\DI\\CDIFactoryDefault&#45;&gt;\\Anax\\DI\\CDI -->
<g id="edge17" class="edge"><title>\\Anax\\DI\\CDIFactoryDefault&#45;&gt;\\Anax\\DI\\CDI</title>
<path fill="none" stroke="black" d="M346.892,-1105.02C315.755,-1096.35 279.585,-1086.28 253.415,-1079"/>
<polygon fill="none" stroke="black" points="254.129,-1075.56 243.557,-1076.25 252.252,-1082.31 254.129,-1075.56"/>
</g>
<!-- \\Anax\\DI\\TInjectable -->
<g id="node17" class="node"><title>\\Anax\\DI\\TInjectable</title>
<polygon fill="none" stroke="black" points="700.13,-1033 609.13,-1033 609.13,-997 700.13,-997 700.13,-1033"/>
<text text-anchor="middle" x="654.63" y="-1012.2" font-family="Courier,monospace" font-size="11.00">TInjectable</text>
</g>
<!-- \\Anax\\DI\\TInjectionAware -->
<g id="node18" class="node"><title>\\Anax\\DI\\TInjectionAware</title>
<polygon fill="none" stroke="black" points="713.63,-979 595.63,-979 595.63,-943 713.63,-943 713.63,-979"/>
<text text-anchor="middle" x="654.63" y="-958.2" font-family="Courier,monospace" font-size="11.00">TInjectionAware</text>
</g>
<!-- \\Anax\\MVC\\CDispatcherBasic -->
<g id="node19" class="node"><title>\\Anax\\MVC\\CDispatcherBasic</title>
<polygon fill="none" stroke="black" points="996.771,-1302 871.771,-1302 871.771,-1266 996.771,-1266 996.771,-1302"/>
<text text-anchor="middle" x="934.271" y="-1281.2" font-family="Courier,monospace" font-size="11.00">CDispatcherBasic</text>
</g>
<!-- \\Anax\\MVC\\CDispatcherBasic&#45;&gt;\\Anax\\DI\\IInjectionAware -->
<g id="edge6" class="edge"><title>\\Anax\\MVC\\CDispatcherBasic&#45;&gt;\\Anax\\DI\\IInjectionAware</title>
<path fill="none" stroke="black" stroke-dasharray="1,5" d="M871.618,-1279.39C854.369,-1275.49 836.69,-1268.69 823.271,-1257 765.207,-1206.43 816.976,-1146.98 759.271,-1096 749.222,-1087.12 736.61,-1081.1 723.676,-1077.04"/>
<polygon fill="none" stroke="black" points="724.332,-1073.59 713.761,-1074.29 722.465,-1080.33 724.332,-1073.59"/>
</g>
<!-- \\Anax\\MVC\\ErrorController -->
<g id="node20" class="node"><title>\\Anax\\MVC\\ErrorController</title>
<polygon fill="none" stroke="black" points="993.271,-1248 875.271,-1248 875.271,-1212 993.271,-1212 993.271,-1248"/>
<text text-anchor="middle" x="934.271" y="-1227.2" font-family="Courier,monospace" font-size="11.00">ErrorController</text>
</g>
<!-- \\Anax\\MVC\\CApplicationBasic -->
<g id="node21" class="node"><title>\\Anax\\MVC\\CApplicationBasic</title>
<polygon fill="none" stroke="black" points="999.771,-1194 868.771,-1194 868.771,-1158 999.771,-1158 999.771,-1194"/>
<text text-anchor="middle" x="934.271" y="-1173.2" font-family="Courier,monospace" font-size="11.00">CApplicationBasic</text>
</g>
<!-- \\Anax\\MVC\\TRedirectHelpers -->
<g id="node22" class="node"><title>\\Anax\\MVC\\TRedirectHelpers</title>
<polygon fill="none" stroke="black" points="996.771,-1140 871.771,-1140 871.771,-1104 996.771,-1104 996.771,-1140"/>
<text text-anchor="middle" x="934.271" y="-1119.2" font-family="Courier,monospace" font-size="11.00">TRedirectHelpers</text>
</g>
<!-- \\Anax\\HTMLForm\\FormController -->
<g id="node23" class="node"><title>\\Anax\\HTMLForm\\FormController</title>
<polygon fill="none" stroke="black" points="989.771,-1060 878.771,-1060 878.771,-1024 989.771,-1024 989.771,-1060"/>
<text text-anchor="middle" x="934.271" y="-1039.2" font-family="Courier,monospace" font-size="11.00">FormController</text>
</g>
<!-- \\Anax\\HTMLForm\\FormSmallController -->
<g id="node24" class="node"><title>\\Anax\\HTMLForm\\FormSmallController</title>
<polygon fill="none" stroke="black" points="1006.77,-1006 861.771,-1006 861.771,-970 1006.77,-970 1006.77,-1006"/>
<text text-anchor="middle" x="934.271" y="-985.2" font-family="Courier,monospace" font-size="11.00">FormSmallController</text>
</g>
<!-- \\Anax\\HTMLForm\\CFormExample -->
<g id="node25" class="node"><title>\\Anax\\HTMLForm\\CFormExample</title>
<polygon fill="none" stroke="black" points="983.271,-952 885.271,-952 885.271,-916 983.271,-916 983.271,-952"/>
<text text-anchor="middle" x="934.271" y="-931.2" font-family="Courier,monospace" font-size="11.00">CFormExample</text>
</g>
<!-- \\Mos\\HTMLForm\\CForm -->
<g id="node45" class="node"><title>\\Mos\\HTMLForm\\CForm</title>
<ellipse fill="none" stroke="black" cx="654.63" cy="-18" rx="104.782" ry="18"/>
<text text-anchor="middle" x="654.63" y="-14.3" font-family="Times,serif" font-size="14.00" fill="gray">\Mos\HTMLForm\CForm</text>
</g>
<!-- \\Anax\\HTMLForm\\CFormExample&#45;&gt;\\Mos\\HTMLForm\\CForm -->
<g id="edge19" class="edge"><title>\\Anax\\HTMLForm\\CFormExample&#45;&gt;\\Mos\\HTMLForm\\CForm</title>
<path fill="none" stroke="black" d="M885.098,-932.118C863.313,-928.741 838.986,-921.012 823.271,-904 762.902,-838.646 677.556,-190.713 659.196,-46.3937"/>
<polygon fill="none" stroke="black" points="662.629,-45.6395 657.899,-36.1589 655.684,-46.5196 662.629,-45.6395"/>
</g>
<!-- \\Anax\\Kernel\\CAnaxSingleton -->
<g id="node26" class="node"><title>\\Anax\\Kernel\\CAnaxSingleton</title>
<polygon fill="none" stroke="black" points="989.771,-1382 878.771,-1382 878.771,-1346 989.771,-1346 989.771,-1382"/>
<text text-anchor="middle" x="934.271" y="-1361.2" font-family="Courier,monospace" font-size="11.00">CAnaxSingleton</text>
</g>
<!-- \\Anax\\Kernel\\CAnax -->
<g id="node27" class="node"><title>\\Anax\\Kernel\\CAnax</title>
<polygon fill="none" stroke="black" points="681.63,-1382 627.63,-1382 627.63,-1346 681.63,-1346 681.63,-1382"/>
<text text-anchor="middle" x="654.63" y="-1361.2" font-family="Courier,monospace" font-size="11.00">CAnax</text>
</g>
<!-- \\Anax\\Kernel\\CAnaxSingleton&#45;&gt;\\Anax\\Kernel\\CAnax -->
<g id="edge8" class="edge"><title>\\Anax\\Kernel\\CAnaxSingleton&#45;&gt;\\Anax\\Kernel\\CAnax</title>
<path fill="none" stroke="black" d="M878.749,-1364C823.546,-1364 739.718,-1364 692.085,-1364"/>
<polygon fill="none" stroke="black" points="691.926,-1360.5 681.926,-1364 691.926,-1367.5 691.926,-1360.5"/>
</g>
<!-- \\Anax\\ISingleton -->
<g id="node40" class="node"><title>\\Anax\\ISingleton</title>
<polygon fill="none" stroke="black" points="696.63,-1454 612.63,-1454 612.63,-1418 696.63,-1418 696.63,-1454"/>
<text text-anchor="middle" x="654.63" y="-1433.2" font-family="Courier,monospace" font-size="11.00">ISingleton</text>
</g>
<!-- \\Anax\\Kernel\\CAnaxSingleton&#45;&gt;\\Anax\\ISingleton -->
<g id="edge9" class="edge"><title>\\Anax\\Kernel\\CAnaxSingleton&#45;&gt;\\Anax\\ISingleton</title>
<path fill="none" stroke="black" stroke-dasharray="1,5" d="M878.681,-1380.76C844.529,-1390.98 799.526,-1403.96 759.271,-1414 742.275,-1418.24 723.581,-1422.37 706.805,-1425.89"/>
<polygon fill="none" stroke="black" points="705.722,-1422.54 696.639,-1427.99 707.141,-1429.39 705.722,-1422.54"/>
</g>
<!-- \\Anax\\Session\\CSession -->
<g id="node28" class="node"><title>\\Anax\\Session\\CSession</title>
<polygon fill="none" stroke="black" points="969.771,-872 898.771,-872 898.771,-836 969.771,-836 969.771,-872"/>
<text text-anchor="middle" x="934.271" y="-851.2" font-family="Courier,monospace" font-size="11.00">CSession</text>
</g>
<!-- \\Anax\\ThemeEngine\\CThemeBasic -->
<g id="node29" class="node"><title>\\Anax\\ThemeEngine\\CThemeBasic</title>
<polygon fill="none" stroke="black" points="979.771,-792 888.771,-792 888.771,-756 979.771,-756 979.771,-792"/>
<text text-anchor="middle" x="934.271" y="-771.2" font-family="Courier,monospace" font-size="11.00">CThemeBasic</text>
</g>
<!-- \\Anax\\ThemeEngine\\CThemeBasic&#45;&gt;\\Anax\\DI\\IInjectionAware -->
<g id="edge11" class="edge"><title>\\Anax\\ThemeEngine\\CThemeBasic&#45;&gt;\\Anax\\DI\\IInjectionAware</title>
<path fill="none" stroke="black" stroke-dasharray="1,5" d="M888.746,-784.686C866.239,-792.211 840.185,-804.514 823.271,-824 757.079,-900.257 831.761,-971.702 759.271,-1042 749.538,-1051.44 736.942,-1057.69 723.903,-1061.81"/>
<polygon fill="none" stroke="black" points="722.604,-1058.53 713.886,-1064.55 724.456,-1065.28 722.604,-1058.53"/>
</g>
<!-- \\Anax\\ThemeEngine\\IThemeEngine -->
<g id="node30" class="node"><title>\\Anax\\ThemeEngine\\IThemeEngine</title>
<polygon fill="none" stroke="black" points="703.63,-792 605.63,-792 605.63,-756 703.63,-756 703.63,-792"/>
<text text-anchor="middle" x="654.63" y="-771.2" font-family="Courier,monospace" font-size="11.00">IThemeEngine</text>
</g>
<!-- \\Anax\\ThemeEngine\\CThemeBasic&#45;&gt;\\Anax\\ThemeEngine\\IThemeEngine -->
<g id="edge10" class="edge"><title>\\Anax\\ThemeEngine\\CThemeBasic&#45;&gt;\\Anax\\ThemeEngine\\IThemeEngine</title>
<path fill="none" stroke="black" stroke-dasharray="1,5" d="M888.663,-774C841.24,-774 766.044,-774 713.953,-774"/>
<polygon fill="none" stroke="black" points="713.858,-770.5 703.858,-774 713.858,-777.5 713.858,-770.5"/>
</g>
<!-- \\Anax\\Content\\CFileContent -->
<g id="node31" class="node"><title>\\Anax\\Content\\CFileContent</title>
<polygon fill="none" stroke="black" points="983.271,-712 885.271,-712 885.271,-676 983.271,-676 983.271,-712"/>
<text text-anchor="middle" x="934.271" y="-691.2" font-family="Courier,monospace" font-size="11.00">CFileContent</text>
</g>
<!-- \\Anax\\Content\\CTextFilter -->
<g id="node32" class="node"><title>\\Anax\\Content\\CTextFilter</title>
<polygon fill="none" stroke="black" points="979.771,-658 888.771,-658 888.771,-622 979.771,-622 979.771,-658"/>
<text text-anchor="middle" x="934.271" y="-637.2" font-family="Courier,monospace" font-size="11.00">CTextFilter</text>
</g>
<!-- \\Anax\\Response\\CResponseBasic -->
<g id="node33" class="node"><title>\\Anax\\Response\\CResponseBasic</title>
<polygon fill="none" stroke="black" points="989.771,-578 878.771,-578 878.771,-542 989.771,-542 989.771,-578"/>
<text text-anchor="middle" x="934.271" y="-557.2" font-family="Courier,monospace" font-size="11.00">CResponseBasic</text>
</g>
<!-- \\Anax\\Request\\CRequestBasic -->
<g id="node34" class="node"><title>\\Anax\\Request\\CRequestBasic</title>
<polygon fill="none" stroke="black" points="986.271,-498 882.271,-498 882.271,-462 986.271,-462 986.271,-498"/>
<text text-anchor="middle" x="934.271" y="-477.2" font-family="Courier,monospace" font-size="11.00">CRequestBasic</text>
</g>
<!-- \\Anax\\Route\\CRouteBasic -->
<g id="node35" class="node"><title>\\Anax\\Route\\CRouteBasic</title>
<polygon fill="none" stroke="black" points="979.771,-418 888.771,-418 888.771,-382 979.771,-382 979.771,-418"/>
<text text-anchor="middle" x="934.271" y="-397.2" font-family="Courier,monospace" font-size="11.00">CRouteBasic</text>
</g>
<!-- \\Anax\\Route\\CRouterBasic -->
<g id="node36" class="node"><title>\\Anax\\Route\\CRouterBasic</title>
<polygon fill="none" stroke="black" points="983.271,-364 885.271,-364 885.271,-328 983.271,-328 983.271,-364"/>
<text text-anchor="middle" x="934.271" y="-343.2" font-family="Courier,monospace" font-size="11.00">CRouterBasic</text>
</g>
<!-- \\Anax\\Route\\CRouterBasic&#45;&gt;\\Anax\\DI\\IInjectionAware -->
<g id="edge18" class="edge"><title>\\Anax\\Route\\CRouterBasic&#45;&gt;\\Anax\\DI\\IInjectionAware</title>
<path fill="none" stroke="black" stroke-dasharray="1,5" d="M885.066,-345.775C863,-348.337 838.444,-355.445 823.271,-373 725.613,-485.991 856.127,-928.321 759.271,-1042 750.101,-1052.76 737.234,-1059.51 723.676,-1063.69"/>
<polygon fill="none" stroke="black" points="722.513,-1060.37 713.724,-1066.29 724.284,-1067.15 722.513,-1060.37"/>
</g>
<!-- \\Anax\\Navigation\\CNavbar -->
<g id="node37" class="node"><title>\\Anax\\Navigation\\CNavbar</title>
<polygon fill="none" stroke="black" points="966.271,-284 902.271,-284 902.271,-248 966.271,-248 966.271,-284"/>
<text text-anchor="middle" x="934.271" y="-263.2" font-family="Courier,monospace" font-size="11.00">CNavbar</text>
</g>
<!-- \\Anax\\Url\\CUrl -->
<g id="node38" class="node"><title>\\Anax\\Url\\CUrl</title>
<polygon fill="none" stroke="black" points="961.271,-204 907.271,-204 907.271,-168 961.271,-168 961.271,-204"/>
<text text-anchor="middle" x="934.271" y="-183.2" font-family="Courier,monospace" font-size="11.00">CUrl</text>
</g>
<!-- \\Exception -->
<g id="node44" class="node"><title>\\Exception</title>
<ellipse fill="none" stroke="black" cx="412.49" cy="-18" rx="48.9926" ry="18"/>
<text text-anchor="middle" x="412.49" y="-14.3" font-family="Times,serif" font-size="14.00" fill="gray">\Exception</text>
</g>
<!-- \\Anax\\Exception&#45;&gt;\\Exception -->
<g id="edge15" class="edge"><title>\\Anax\\Exception&#45;&gt;\\Exception</title>
<path fill="none" stroke="black" d="M642.488,-1666.83C620.495,-1629.95 571.752,-1543.04 549.99,-1463 511.401,-1321.08 429.668,-236.19 415.579,-46.3139"/>
<polygon fill="none" stroke="black" points="419.065,-45.9952 414.836,-36.2812 412.084,-46.5124 419.065,-45.9952"/>
</g>
<!-- \\Anax\\TConfigure -->
<g id="node41" class="node"><title>\\Anax\\TConfigure</title>
<polygon fill="none" stroke="black" points="976.271,-150 892.271,-150 892.271,-114 976.271,-114 976.271,-150"/>
<text text-anchor="middle" x="934.271" y="-129.2" font-family="Courier,monospace" font-size="11.00">TConfigure</text>
</g>
<!-- \\Anax\\TSingleton -->
<g id="node42" class="node"><title>\\Anax\\TSingleton</title>
<polygon fill="none" stroke="black" points="976.271,-96 892.271,-96 892.271,-60 976.271,-60 976.271,-96"/>
<text text-anchor="middle" x="934.271" y="-75.2" font-family="Courier,monospace" font-size="11.00">TSingleton</text>
</g>
</g>
</svg>
