<?xml version="1.0" encoding="UTF-8" standalone="no"?>
<!DOCTYPE svg PUBLIC "-//W3C//DTD SVG 1.1//EN"
 "http://www.w3.org/Graphics/SVG/1.1/DTD/svg11.dtd">
<!-- Generated by graphviz version 2.38.0 (20140413.2041)
 -->
<!-- Title: G Pages: 1 -->
<svg width="1080pt" height="2232pt"
 viewBox="0.00 0.00 1079.56 2232.00" xmlns="http://www.w3.org/2000/svg" xmlns:xlink="http://www.w3.org/1999/xlink">
<g id="graph0" class="graph" transform="scale(1 1) rotate(0) translate(4 2228)">
<title>G</title>
<polygon fill="white" stroke="none" points="-4,4 -4,-2228 1075.56,-2228 1075.56,4 -4,4"/>
<g id="clust1" class="cluster"><title>cluster_Global</title>
<path fill="none" stroke="gray" d="M20,-152C20,-152 1051.56,-152 1051.56,-152 1057.56,-152 1063.56,-158 1063.56,-164 1063.56,-164 1063.56,-2204 1063.56,-2204 1063.56,-2210 1057.56,-2216 1051.56,-2216 1051.56,-2216 20,-2216 20,-2216 14,-2216 8,-2210 8,-2204 8,-2204 8,-164 8,-164 8,-158 14,-152 20,-152"/>
<text text-anchor="middle" x="535.782" y="-2203.2" font-family="Times,serif" font-size="11.00" fill="gray">Global</text>
</g>
<g id="clust2" class="cluster"><title>cluster_\Anax</title>
<path fill="none" stroke="gray" d="M28,-160C28,-160 1043.56,-160 1043.56,-160 1049.56,-160 1055.56,-166 1055.56,-172 1055.56,-172 1055.56,-2176 1055.56,-2176 1055.56,-2182 1049.56,-2188 1043.56,-2188 1043.56,-2188 28,-2188 28,-2188 22,-2188 16,-2182 16,-2176 16,-2176 16,-172 16,-172 16,-166 22,-160 28,-160"/>
<text text-anchor="middle" x="535.782" y="-2175.2" font-family="Times,serif" font-size="11.00" fill="gray">Anax</text>
</g>
<g id="clust3" class="cluster"><title>cluster_\Anax\Validate</title>
<path fill="none" stroke="gray" d="M902.064,-2088C902.064,-2088 971.064,-2088 971.064,-2088 977.064,-2088 983.064,-2094 983.064,-2100 983.064,-2100 983.064,-2148 983.064,-2148 983.064,-2154 977.064,-2160 971.064,-2160 971.064,-2160 902.064,-2160 902.064,-2160 896.064,-2160 890.064,-2154 890.064,-2148 890.064,-2148 890.064,-2100 890.064,-2100 890.064,-2094 896.064,-2088 902.064,-2088"/>
<text text-anchor="middle" x="936.564" y="-2147.2" font-family="Times,serif" font-size="11.00" fill="gray">Validate</text>
</g>
<g id="clust4" class="cluster"><title>cluster_\Anax\Loader</title>
<path fill="none" stroke="gray" d="M881.564,-2008C881.564,-2008 991.564,-2008 991.564,-2008 997.564,-2008 1003.56,-2014 1003.56,-2020 1003.56,-2020 1003.56,-2068 1003.56,-2068 1003.56,-2074 997.564,-2080 991.564,-2080 991.564,-2080 881.564,-2080 881.564,-2080 875.564,-2080 869.564,-2074 869.564,-2068 869.564,-2068 869.564,-2020 869.564,-2020 869.564,-2014 875.564,-2008 881.564,-2008"/>
<text text-anchor="middle" x="936.564" y="-2067.2" font-family="Times,serif" font-size="11.00" fill="gray">Loader</text>
</g>
<g id="clust5" class="cluster"><title>cluster_\Anax\Log</title>
<path fill="none" stroke="gray" d="M908.564,-1928C908.564,-1928 964.564,-1928 964.564,-1928 970.564,-1928 976.564,-1934 976.564,-1940 976.564,-1940 976.564,-1988 976.564,-1988 976.564,-1994 970.564,-2000 964.564,-2000 964.564,-2000 908.564,-2000 908.564,-2000 902.564,-2000 896.564,-1994 896.564,-1988 896.564,-1988 896.564,-1940 896.564,-1940 896.564,-1934 902.564,-1928 908.564,-1928"/>
<text text-anchor="middle" x="936.564" y="-1987.2" font-family="Times,serif" font-size="11.00" fill="gray">Log</text>
</g>
<g id="clust6" class="cluster"><title>cluster_\Anax\Exception</title>
<path fill="none" stroke="gray" d="M837.564,-1740C837.564,-1740 1035.56,-1740 1035.56,-1740 1041.56,-1740 1047.56,-1746 1047.56,-1752 1047.56,-1752 1047.56,-1908 1047.56,-1908 1047.56,-1914 1041.56,-1920 1035.56,-1920 1035.56,-1920 837.564,-1920 837.564,-1920 831.564,-1920 825.564,-1914 825.564,-1908 825.564,-1908 825.564,-1752 825.564,-1752 825.564,-1746 831.564,-1740 837.564,-1740"/>
<text text-anchor="middle" x="936.564" y="-1907.2" font-family="Times,serif" font-size="11.00" fill="gray">Exception</text>
</g>
<g id="clust7" class="cluster"><title>cluster_\Anax\View</title>
<path fill="none" stroke="gray" d="M868.064,-1606C868.064,-1606 1005.06,-1606 1005.06,-1606 1011.06,-1606 1017.06,-1612 1017.06,-1618 1017.06,-1618 1017.06,-1720 1017.06,-1720 1017.06,-1726 1011.06,-1732 1005.06,-1732 1005.06,-1732 868.064,-1732 868.064,-1732 862.064,-1732 856.064,-1726 856.064,-1720 856.064,-1720 856.064,-1618 856.064,-1618 856.064,-1612 862.064,-1606 868.064,-1606"/>
<text text-anchor="middle" x="936.564" y="-1719.2" font-family="Times,serif" font-size="11.00" fill="gray">View</text>
</g>
<g id="clust8" class="cluster"><title>cluster_\Anax\Flash</title>
<path fill="none" stroke="gray" d="M895.064,-1526C895.064,-1526 978.064,-1526 978.064,-1526 984.064,-1526 990.064,-1532 990.064,-1538 990.064,-1538 990.064,-1586 990.064,-1586 990.064,-1592 984.064,-1598 978.064,-1598 978.064,-1598 895.064,-1598 895.064,-1598 889.064,-1598 883.064,-1592 883.064,-1586 883.064,-1586 883.064,-1538 883.064,-1538 883.064,-1532 889.064,-1526 895.064,-1526"/>
<text text-anchor="middle" x="936.564" y="-1585.2" font-family="Times,serif" font-size="11.00" fill="gray">Flash</text>
</g>
<g id="clust9" class="cluster"><title>cluster_\Anax\DI</title>
<path fill="none" stroke="gray" d="M36,-936C36,-936 738.923,-936 738.923,-936 744.923,-936 750.923,-942 750.923,-948 750.923,-948 750.923,-1212 750.923,-1212 750.923,-1218 744.923,-1224 738.923,-1224 738.923,-1224 36,-1224 36,-1224 30,-1224 24,-1218 24,-1212 24,-1212 24,-948 24,-948 24,-942 30,-936 36,-936"/>
<text text-anchor="middle" x="387.462" y="-1211.2" font-family="Times,serif" font-size="11.00" fill="gray">DI</text>
</g>
<g id="clust10" class="cluster"><title>cluster_\Anax\MVC</title>
<path fill="none" stroke="gray" d="M875.064,-1204C875.064,-1204 998.064,-1204 998.064,-1204 1004.06,-1204 1010.06,-1210 1010.06,-1216 1010.06,-1216 1010.06,-1426 1010.06,-1426 1010.06,-1432 1004.06,-1438 998.064,-1438 998.064,-1438 875.064,-1438 875.064,-1438 869.064,-1438 863.064,-1432 863.064,-1426 863.064,-1426 863.064,-1216 863.064,-1216 863.064,-1210 869.064,-1204 875.064,-1204"/>
<text text-anchor="middle" x="936.564" y="-1425.2" font-family="Times,serif" font-size="11.00" fill="gray">MVC</text>
</g>
<g id="clust11" class="cluster"><title>cluster_\Anax\HTMLForm</title>
<path fill="none" stroke="gray" d="M868.064,-1016C868.064,-1016 1005.06,-1016 1005.06,-1016 1011.06,-1016 1017.06,-1022 1017.06,-1028 1017.06,-1028 1017.06,-1184 1017.06,-1184 1017.06,-1190 1011.06,-1196 1005.06,-1196 1005.06,-1196 868.064,-1196 868.064,-1196 862.064,-1196 856.064,-1190 856.064,-1184 856.064,-1184 856.064,-1028 856.064,-1028 856.064,-1022 862.064,-1016 868.064,-1016"/>
<text text-anchor="middle" x="936.564" y="-1183.2" font-family="Times,serif" font-size="11.00" fill="gray">HTMLForm</text>
</g>
<g id="clust12" class="cluster"><title>cluster_\Anax\Kernel</title>
<path fill="none" stroke="gray" d="M633.923,-1446C633.923,-1446 988.064,-1446 988.064,-1446 994.064,-1446 1000.06,-1452 1000.06,-1458 1000.06,-1458 1000.06,-1506 1000.06,-1506 1000.06,-1512 994.064,-1518 988.064,-1518 988.064,-1518 633.923,-1518 633.923,-1518 627.923,-1518 621.923,-1512 621.923,-1506 621.923,-1506 621.923,-1458 621.923,-1458 621.923,-1452 627.923,-1446 633.923,-1446"/>
<text text-anchor="middle" x="810.994" y="-1505.2" font-family="Times,serif" font-size="11.00" fill="gray">Kernel</text>
</g>
<g id="clust13" class="cluster"><title>cluster_\Anax\Session</title>
<path fill="none" stroke="gray" d="M905.064,-936C905.064,-936 968.064,-936 968.064,-936 974.064,-936 980.064,-942 980.064,-948 980.064,-948 980.064,-996 980.064,-996 980.064,-1002 974.064,-1008 968.064,-1008 968.064,-1008 905.064,-1008 905.064,-1008 899.064,-1008 893.064,-1002 893.064,-996 893.064,-996 893.064,-948 893.064,-948 893.064,-942 899.064,-936 905.064,-936"/>
<text text-anchor="middle" x="936.564" y="-995.2" font-family="Times,serif" font-size="11.00" fill="gray">Session</text>
</g>
<g id="clust14" class="cluster"><title>cluster_\Anax\ThemeEngine</title>
<path fill="none" stroke="gray" d="M611.923,-856C611.923,-856 978.064,-856 978.064,-856 984.064,-856 990.064,-862 990.064,-868 990.064,-868 990.064,-916 990.064,-916 990.064,-922 984.064,-928 978.064,-928 978.064,-928 611.923,-928 611.923,-928 605.923,-928 599.923,-922 599.923,-916 599.923,-916 599.923,-868 599.923,-868 599.923,-862 605.923,-856 611.923,-856"/>
<text text-anchor="middle" x="794.994" y="-915.2" font-family="Times,serif" font-size="11.00" fill="gray">ThemeEngine</text>
</g>
<g id="clust15" class="cluster"><title>cluster_\Anax\Content</title>
<path fill="none" stroke="gray" d="M891.564,-722C891.564,-722 981.564,-722 981.564,-722 987.564,-722 993.564,-728 993.564,-734 993.564,-734 993.564,-836 993.564,-836 993.564,-842 987.564,-848 981.564,-848 981.564,-848 891.564,-848 891.564,-848 885.564,-848 879.564,-842 879.564,-836 879.564,-836 879.564,-734 879.564,-734 879.564,-728 885.564,-722 891.564,-722"/>
<text text-anchor="middle" x="936.564" y="-835.2" font-family="Times,serif" font-size="11.00" fill="gray">Content</text>
</g>
<g id="clust16" class="cluster"><title>cluster_\Anax\Response</title>
<path fill="none" stroke="gray" d="M885.064,-642C885.064,-642 988.064,-642 988.064,-642 994.064,-642 1000.06,-648 1000.06,-654 1000.06,-654 1000.06,-702 1000.06,-702 1000.06,-708 994.064,-714 988.064,-714 988.064,-714 885.064,-714 885.064,-714 879.064,-714 873.064,-708 873.064,-702 873.064,-702 873.064,-654 873.064,-654 873.064,-648 879.064,-642 885.064,-642"/>
<text text-anchor="middle" x="936.564" y="-701.2" font-family="Times,serif" font-size="11.00" fill="gray">Response</text>
</g>
<g id="clust17" class="cluster"><title>cluster_\Anax\Request</title>
<path fill="none" stroke="gray" d="M888.564,-562C888.564,-562 984.564,-562 984.564,-562 990.564,-562 996.564,-568 996.564,-574 996.564,-574 996.564,-622 996.564,-622 996.564,-628 990.564,-634 984.564,-634 984.564,-634 888.564,-634 888.564,-634 882.564,-634 876.564,-628 876.564,-622 876.564,-622 876.564,-574 876.564,-574 876.564,-568 882.564,-562 888.564,-562"/>
<text text-anchor="middle" x="936.564" y="-621.2" font-family="Times,serif" font-size="11.00" fill="gray">Request</text>
</g>
<g id="clust18" class="cluster"><title>cluster_\Anax\Route</title>
<path fill="none" stroke="gray" d="M891.564,-428C891.564,-428 981.564,-428 981.564,-428 987.564,-428 993.564,-434 993.564,-440 993.564,-440 993.564,-542 993.564,-542 993.564,-548 987.564,-554 981.564,-554 981.564,-554 891.564,-554 891.564,-554 885.564,-554 879.564,-548 879.564,-542 879.564,-542 879.564,-440 879.564,-440 879.564,-434 885.564,-428 891.564,-428"/>
<text text-anchor="middle" x="936.564" y="-541.2" font-family="Times,serif" font-size="11.00" fill="gray">Route</text>
</g>
<g id="clust19" class="cluster"><title>cluster_\Anax\Navigation</title>
<path fill="none" stroke="gray" d="M908.564,-348C908.564,-348 964.564,-348 964.564,-348 970.564,-348 976.564,-354 976.564,-360 976.564,-360 976.564,-408 976.564,-408 976.564,-414 970.564,-420 964.564,-420 964.564,-420 908.564,-420 908.564,-420 902.564,-420 896.564,-414 896.564,-408 896.564,-408 896.564,-360 896.564,-360 896.564,-354 902.564,-348 908.564,-348"/>
<text text-anchor="middle" x="936.564" y="-407.2" font-family="Times,serif" font-size="11.00" fill="gray">Navigation</text>
</g>
<g id="clust20" class="cluster"><title>cluster_\Anax\Url</title>
<path fill="none" stroke="gray" d="M913.564,-268C913.564,-268 959.564,-268 959.564,-268 965.564,-268 971.564,-274 971.564,-280 971.564,-280 971.564,-328 971.564,-328 971.564,-334 965.564,-340 959.564,-340 959.564,-340 913.564,-340 913.564,-340 907.564,-340 901.564,-334 901.564,-328 901.564,-328 901.564,-280 901.564,-280 901.564,-274 907.564,-268 913.564,-268"/>
<text text-anchor="middle" x="936.564" y="-327.2" font-family="Times,serif" font-size="11.00" fill="gray">Url</text>
</g>
<!-- \\Anax\\Validate\\CValidate -->
<g id="node1" class="node"><title>\\Anax\\Validate\\CValidate</title>
<polygon fill="none" stroke="black" points="975.064,-2132 898.064,-2132 898.064,-2096 975.064,-2096 975.064,-2132"/>
<text text-anchor="middle" x="936.564" y="-2111.2" font-family="Courier,monospace" font-size="11.00">CValidate</text>
</g>
<!-- \\Anax\\Loader\\CPsr4Autoloader -->
<g id="node2" class="node"><title>\\Anax\\Loader\\CPsr4Autoloader</title>
<polygon fill="none" stroke="black" points="995.564,-2052 877.564,-2052 877.564,-2016 995.564,-2016 995.564,-2052"/>
<text text-anchor="middle" x="936.564" y="-2031.2" font-family="Courier,monospace" font-size="11.00">CPsr4Autoloader</text>
</g>
<!-- \\Anax\\Log\\CLogger -->
<g id="node3" class="node"><title>\\Anax\\Log\\CLogger</title>
<polygon fill="none" stroke="black" points="968.564,-1972 904.564,-1972 904.564,-1936 968.564,-1936 968.564,-1972"/>
<text text-anchor="middle" x="936.564" y="-1951.2" font-family="Courier,monospace" font-size="11.00">CLogger</text>
</g>
<!-- \\Anax\\Exception\\InternalServerErrorException -->
<g id="node4" class="node"><title>\\Anax\\Exception\\InternalServerErrorException</title>
<polygon fill="none" stroke="black" points="1039.56,-1892 833.564,-1892 833.564,-1856 1039.56,-1856 1039.56,-1892"/>
<text text-anchor="middle" x="936.564" y="-1871.2" font-family="Courier,monospace" font-size="11.00">InternalServerErrorException</text>
</g>
<!-- \\Anax\\Exception -->
<g id="node38" class="node"><title>\\Anax\\Exception</title>
<polygon fill="none" stroke="black" points="695.423,-1811 618.423,-1811 618.423,-1775 695.423,-1775 695.423,-1811"/>
<text text-anchor="middle" x="656.923" y="-1790.2" font-family="Courier,monospace" font-size="11.00">Exception</text>
</g>
<!-- \\Anax\\Exception\\InternalServerErrorException&#45;&gt;\\Anax\\Exception -->
<g id="edge1" class="edge"><title>\\Anax\\Exception\\InternalServerErrorException&#45;&gt;\\Anax\\Exception</title>
<path fill="none" stroke="black" d="M859.044,-1855.96C847.783,-1853.09 836.348,-1850.06 825.564,-1847 784.598,-1835.39 738.596,-1820.43 705.158,-1809.2"/>
<polygon fill="none" stroke="black" points="706.235,-1805.87 695.64,-1806 703.998,-1812.51 706.235,-1805.87"/>
</g>
<!-- \\Anax\\Exception\\NotFoundException -->
<g id="node5" class="node"><title>\\Anax\\Exception\\NotFoundException</title>
<polygon fill="none" stroke="black" points="1002.06,-1838 871.064,-1838 871.064,-1802 1002.06,-1802 1002.06,-1838"/>
<text text-anchor="middle" x="936.564" y="-1817.2" font-family="Courier,monospace" font-size="11.00">NotFoundException</text>
</g>
<!-- \\Anax\\Exception\\NotFoundException&#45;&gt;\\Anax\\Exception -->
<g id="edge4" class="edge"><title>\\Anax\\Exception\\NotFoundException&#45;&gt;\\Anax\\Exception</title>
<path fill="none" stroke="black" d="M870.82,-1813.7C820.426,-1808.8 751.612,-1802.11 706.023,-1797.68"/>
<polygon fill="none" stroke="black" points="706.104,-1794.17 695.812,-1796.68 705.426,-1801.14 706.104,-1794.17"/>
</g>
<!-- \\Anax\\Exception\\ForbiddenException -->
<g id="node6" class="node"><title>\\Anax\\Exception\\ForbiddenException</title>
<polygon fill="none" stroke="black" points="1005.56,-1784 867.564,-1784 867.564,-1748 1005.56,-1748 1005.56,-1784"/>
<text text-anchor="middle" x="936.564" y="-1763.2" font-family="Courier,monospace" font-size="11.00">ForbiddenException</text>
</g>
<!-- \\Anax\\Exception\\ForbiddenException&#45;&gt;\\Anax\\Exception -->
<g id="edge15" class="edge"><title>\\Anax\\Exception\\ForbiddenException&#45;&gt;\\Anax\\Exception</title>
<path fill="none" stroke="black" d="M867.29,-1772.64C817.091,-1777.52 750.131,-1784.03 705.597,-1788.36"/>
<polygon fill="none" stroke="black" points="705.231,-1784.88 695.617,-1789.33 705.909,-1791.85 705.231,-1784.88"/>
</g>
<!-- \\Anax\\View\\CViewContainerBasic -->
<g id="node7" class="node"><title>\\Anax\\View\\CViewContainerBasic</title>
<polygon fill="none" stroke="black" points="1009.06,-1704 864.064,-1704 864.064,-1668 1009.06,-1668 1009.06,-1704"/>
<text text-anchor="middle" x="936.564" y="-1683.2" font-family="Courier,monospace" font-size="11.00">CViewContainerBasic</text>
</g>
<!-- \\Anax\\DI\\IInjectionAware -->
<g id="node15" class="node"><title>\\Anax\\DI\\IInjectionAware</title>
<polygon fill="none" stroke="black" points="715.923,-1088 597.923,-1088 597.923,-1052 715.923,-1052 715.923,-1088"/>
<text text-anchor="middle" x="656.923" y="-1067.2" font-family="Courier,monospace" font-size="11.00">IInjectionAware</text>
</g>
<!-- \\Anax\\View\\CViewContainerBasic&#45;&gt;\\Anax\\DI\\IInjectionAware -->
<g id="edge2" class="edge"><title>\\Anax\\View\\CViewContainerBasic&#45;&gt;\\Anax\\DI\\IInjectionAware</title>
<path fill="none" stroke="black" stroke-dasharray="1,5" d="M863.821,-1681.45C849.325,-1677.25 835.503,-1670.29 825.564,-1659 659.47,-1470.29 926.318,-1286.88 761.564,-1097 752.347,-1086.38 739.528,-1079.67 726.041,-1075.5"/>
<polygon fill="none" stroke="black" points="726.706,-1072.06 716.144,-1072.89 724.921,-1078.83 726.706,-1072.06"/>
</g>
<!-- \\Anax\\View\\CViewBasic -->
<g id="node8" class="node"><title>\\Anax\\View\\CViewBasic</title>
<polygon fill="none" stroke="black" points="978.564,-1650 894.564,-1650 894.564,-1614 978.564,-1614 978.564,-1650"/>
<text text-anchor="middle" x="936.564" y="-1629.2" font-family="Courier,monospace" font-size="11.00">CViewBasic</text>
</g>
<!-- \\Anax\\View\\CViewBasic&#45;&gt;\\Anax\\DI\\IInjectionAware -->
<g id="edge3" class="edge"><title>\\Anax\\View\\CViewBasic&#45;&gt;\\Anax\\DI\\IInjectionAware</title>
<path fill="none" stroke="black" stroke-dasharray="1,5" d="M894.39,-1631.5C870.76,-1628.92 842.506,-1621.5 825.564,-1602 677.186,-1431.21 910.914,-1266.94 761.564,-1097 752.28,-1086.44 739.433,-1079.76 725.941,-1075.59"/>
<polygon fill="none" stroke="black" points="726.606,-1072.15 716.044,-1072.98 724.821,-1078.91 726.606,-1072.15"/>
</g>
<!-- \\Anax\\Flash\\CFlashBasic -->
<g id="node9" class="node"><title>\\Anax\\Flash\\CFlashBasic</title>
<polygon fill="none" stroke="black" points="982.064,-1570 891.064,-1570 891.064,-1534 982.064,-1534 982.064,-1570"/>
<text text-anchor="middle" x="936.564" y="-1549.2" font-family="Courier,monospace" font-size="11.00">CFlashBasic</text>
</g>
<!-- \\Anax\\DI\\CDI -->
<g id="node10" class="node"><title>\\Anax\\DI\\CDI</title>
<polygon fill="none" stroke="black" points="212,-1196 158,-1196 158,-1160 212,-1160 212,-1196"/>
<text text-anchor="middle" x="185" y="-1175.2" font-family="Courier,monospace" font-size="11.00">CDI</text>
</g>
<!-- \\Anax\\DI\\IDI -->
<g id="node14" class="node"><title>\\Anax\\DI\\IDI</title>
<polygon fill="none" stroke="black" points="86,-1196 32,-1196 32,-1160 86,-1160 86,-1196"/>
<text text-anchor="middle" x="59" y="-1175.2" font-family="Courier,monospace" font-size="11.00">IDI</text>
</g>
<!-- \\Anax\\DI\\CDI&#45;&gt;\\Anax\\DI\\IDI -->
<g id="edge5" class="edge"><title>\\Anax\\DI\\CDI&#45;&gt;\\Anax\\DI\\IDI</title>
<path fill="none" stroke="black" stroke-dasharray="1,5" d="M157.703,-1178C139.865,-1178 116.047,-1178 96.3935,-1178"/>
<polygon fill="none" stroke="black" points="96.2593,-1174.5 86.2593,-1178 96.2593,-1181.5 96.2593,-1174.5"/>
</g>
<!-- \\Anax\\DI\\CDIFactoryDocumentation -->
<g id="node11" class="node"><title>\\Anax\\DI\\CDIFactoryDocumentation</title>
<polygon fill="none" stroke="black" points="742.923,-1196 570.923,-1196 570.923,-1160 742.923,-1160 742.923,-1196"/>
<text text-anchor="middle" x="656.923" y="-1175.2" font-family="Courier,monospace" font-size="11.00">CDIFactoryDocumentation</text>
</g>
<!-- \\Anax\\DI\\CDIFactoryDefault -->
<g id="node13" class="node"><title>\\Anax\\DI\\CDIFactoryDefault</title>
<polygon fill="none" stroke="black" points="447.641,-1196 316.641,-1196 316.641,-1160 447.641,-1160 447.641,-1196"/>
<text text-anchor="middle" x="382.141" y="-1175.2" font-family="Courier,monospace" font-size="11.00">CDIFactoryDefault</text>
</g>
<!-- \\Anax\\DI\\CDIFactoryDocumentation&#45;&gt;\\Anax\\DI\\CDIFactoryDefault -->
<g id="edge11" class="edge"><title>\\Anax\\DI\\CDIFactoryDocumentation&#45;&gt;\\Anax\\DI\\CDIFactoryDefault</title>
<path fill="none" stroke="black" d="M570.735,-1178C534.597,-1178 492.848,-1178 457.922,-1178"/>
<polygon fill="none" stroke="black" points="457.791,-1174.5 447.791,-1178 457.791,-1181.5 457.791,-1174.5"/>
</g>
<!-- \\Anax\\DI\\CDIArray -->
<g id="node12" class="node"><title>\\Anax\\DI\\CDIArray</title>
<polygon fill="none" stroke="black" points="692.423,-1142 621.423,-1142 621.423,-1106 692.423,-1106 692.423,-1142"/>
<text text-anchor="middle" x="656.923" y="-1121.2" font-family="Courier,monospace" font-size="11.00">CDIArray</text>
</g>
<!-- \\Anax\\DI\\Anax\\DI -->
<g id="node42" class="node"><title>\\Anax\\DI\\Anax\\DI</title>
<ellipse fill="none" stroke="black" cx="382.141" cy="-18" rx="77.1866" ry="18"/>
<text text-anchor="middle" x="382.141" y="-14.3" font-family="Times,serif" font-size="14.00" fill="gray">\Anax\DI\Anax\DI</text>
</g>
<!-- \\Anax\\DI\\CDIArray&#45;&gt;\\Anax\\DI\\Anax\\DI -->
<g id="edge12" class="edge"><title>\\Anax\\DI\\CDIArray&#45;&gt;\\Anax\\DI\\Anax\\DI</title>
<path fill="none" stroke="black" d="M621.352,-1124.72C598.124,-1123.19 568.836,-1116.97 552.283,-1097 402.74,-916.598 628.354,-226.612 480.283,-45 475.15,-38.7043 468.685,-33.8039 461.541,-29.9998"/>
<polygon fill="none" stroke="black" points="462.73,-26.6955 452.178,-25.745 459.834,-33.0684 462.73,-26.6955"/>
</g>
<!-- \\Anax\\DI\\ArrayInterface -->
<g id="node43" class="node"><title>\\Anax\\DI\\ArrayInterface</title>
<ellipse fill="none" stroke="black" cx="382.141" cy="-72" rx="98.2828" ry="18"/>
<text text-anchor="middle" x="382.141" y="-68.3" font-family="Times,serif" font-size="14.00" fill="gray">\Anax\DI\ArrayInterface</text>
</g>
<!-- \\Anax\\DI\\CDIArray&#45;&gt;\\Anax\\DI\\ArrayInterface -->
<g id="edge13" class="edge"><title>\\Anax\\DI\\CDIArray&#45;&gt;\\Anax\\DI\\ArrayInterface</title>
<path fill="none" stroke="black" stroke-dasharray="1,5" d="M621.375,-1124.7C598.157,-1123.16 568.873,-1116.94 552.283,-1097 410.064,-926.075 621.108,-271.075 480.283,-99 476.905,-94.8727 472.955,-91.3454 468.617,-88.3337"/>
<polygon fill="none" stroke="black" points="470.236,-85.2251 459.846,-83.1554 466.678,-91.2531 470.236,-85.2251"/>
</g>
<!-- \\Anax\\DI\\CDIFactoryDefault&#45;&gt;\\Anax\\DI\\CDI -->
<g id="edge16" class="edge"><title>\\Anax\\DI\\CDIFactoryDefault&#45;&gt;\\Anax\\DI\\CDI</title>
<path fill="none" stroke="black" d="M316.433,-1178C285.23,-1178 248.95,-1178 222.585,-1178"/>
<polygon fill="none" stroke="black" points="222.292,-1174.5 212.292,-1178 222.292,-1181.5 222.292,-1174.5"/>
</g>
<!-- \\Anax\\DI\\TInjectable -->
<g id="node16" class="node"><title>\\Anax\\DI\\TInjectable</title>
<polygon fill="none" stroke="black" points="702.423,-1034 611.423,-1034 611.423,-998 702.423,-998 702.423,-1034"/>
<text text-anchor="middle" x="656.923" y="-1013.2" font-family="Courier,monospace" font-size="11.00">TInjectable</text>
</g>
<!-- \\Anax\\DI\\TInjectionAware -->
<g id="node17" class="node"><title>\\Anax\\DI\\TInjectionAware</title>
<polygon fill="none" stroke="black" points="715.923,-980 597.923,-980 597.923,-944 715.923,-944 715.923,-980"/>
<text text-anchor="middle" x="656.923" y="-959.2" font-family="Courier,monospace" font-size="11.00">TInjectionAware</text>
</g>
<!-- \\Anax\\MVC\\CDispatcherBasic -->
<g id="node18" class="node"><title>\\Anax\\MVC\\CDispatcherBasic</title>
<polygon fill="none" stroke="black" points="999.064,-1410 874.064,-1410 874.064,-1374 999.064,-1374 999.064,-1410"/>
<text text-anchor="middle" x="936.564" y="-1389.2" font-family="Courier,monospace" font-size="11.00">CDispatcherBasic</text>
</g>
<!-- \\Anax\\MVC\\CDispatcherBasic&#45;&gt;\\Anax\\DI\\IInjectionAware -->
<g id="edge6" class="edge"><title>\\Anax\\MVC\\CDispatcherBasic&#45;&gt;\\Anax\\DI\\IInjectionAware</title>
<path fill="none" stroke="black" stroke-dasharray="1,5" d="M873.959,-1388.82C856.303,-1385.01 838.385,-1377.9 825.564,-1365 739.244,-1278.14 847.267,-1184.47 761.564,-1097 751.878,-1087.11 739.063,-1080.69 725.757,-1076.56"/>
<polygon fill="none" stroke="black" points="726.586,-1073.16 716.02,-1073.94 724.765,-1079.92 726.586,-1073.16"/>
</g>
<!-- \\Anax\\MVC\\ErrorController -->
<g id="node19" class="node"><title>\\Anax\\MVC\\ErrorController</title>
<polygon fill="none" stroke="black" points="995.564,-1356 877.564,-1356 877.564,-1320 995.564,-1320 995.564,-1356"/>
<text text-anchor="middle" x="936.564" y="-1335.2" font-family="Courier,monospace" font-size="11.00">ErrorController</text>
</g>
<!-- \\Anax\\MVC\\CApplicationBasic -->
<g id="node20" class="node"><title>\\Anax\\MVC\\CApplicationBasic</title>
<polygon fill="none" stroke="black" points="1002.06,-1302 871.064,-1302 871.064,-1266 1002.06,-1266 1002.06,-1302"/>
<text text-anchor="middle" x="936.564" y="-1281.2" font-family="Courier,monospace" font-size="11.00">CApplicationBasic</text>
</g>
<!-- \\Anax\\MVC\\TRedirectHelpers -->
<g id="node21" class="node"><title>\\Anax\\MVC\\TRedirectHelpers</title>
<polygon fill="none" stroke="black" points="999.064,-1248 874.064,-1248 874.064,-1212 999.064,-1212 999.064,-1248"/>
<text text-anchor="middle" x="936.564" y="-1227.2" font-family="Courier,monospace" font-size="11.00">TRedirectHelpers</text>
</g>
<!-- \\Anax\\HTMLForm\\FormController -->
<g id="node22" class="node"><title>\\Anax\\HTMLForm\\FormController</title>
<polygon fill="none" stroke="black" points="992.064,-1168 881.064,-1168 881.064,-1132 992.064,-1132 992.064,-1168"/>
<text text-anchor="middle" x="936.564" y="-1147.2" font-family="Courier,monospace" font-size="11.00">FormController</text>
</g>
<!-- \\Anax\\HTMLForm\\FormSmallController -->
<g id="node23" class="node"><title>\\Anax\\HTMLForm\\FormSmallController</title>
<polygon fill="none" stroke="black" points="1009.06,-1114 864.064,-1114 864.064,-1078 1009.06,-1078 1009.06,-1114"/>
<text text-anchor="middle" x="936.564" y="-1093.2" font-family="Courier,monospace" font-size="11.00">FormSmallController</text>
</g>
<!-- \\Anax\\HTMLForm\\CFormExample -->
<g id="node24" class="node"><title>\\Anax\\HTMLForm\\CFormExample</title>
<polygon fill="none" stroke="black" points="985.564,-1060 887.564,-1060 887.564,-1024 985.564,-1024 985.564,-1060"/>
<text text-anchor="middle" x="936.564" y="-1039.2" font-family="Courier,monospace" font-size="11.00">CFormExample</text>
</g>
<!-- \\Mos\\HTMLForm\\CForm -->
<g id="node45" class="node"><title>\\Mos\\HTMLForm\\CForm</title>
<ellipse fill="none" stroke="black" cx="656.923" cy="-126" rx="104.782" ry="18"/>
<text text-anchor="middle" x="656.923" y="-122.3" font-family="Times,serif" font-size="14.00" fill="gray">\Mos\HTMLForm\CForm</text>
</g>
<!-- \\Anax\\HTMLForm\\CFormExample&#45;&gt;\\Mos\\HTMLForm\\CForm -->
<g id="edge18" class="edge"><title>\\Anax\\HTMLForm\\CFormExample&#45;&gt;\\Mos\\HTMLForm\\CForm</title>
<path fill="none" stroke="black" d="M887.391,-1040.12C865.606,-1036.74 841.279,-1029.01 825.564,-1012 765.195,-946.646 679.849,-298.713 661.489,-154.394"/>
<polygon fill="none" stroke="black" points="664.922,-153.64 660.192,-144.159 657.977,-154.52 664.922,-153.64"/>
</g>
<!-- \\Anax\\Kernel\\CAnaxSingleton -->
<g id="node25" class="node"><title>\\Anax\\Kernel\\CAnaxSingleton</title>
<polygon fill="none" stroke="black" points="992.064,-1490 881.064,-1490 881.064,-1454 992.064,-1454 992.064,-1490"/>
<text text-anchor="middle" x="936.564" y="-1469.2" font-family="Courier,monospace" font-size="11.00">CAnaxSingleton</text>
</g>
<!-- \\Anax\\Kernel\\CAnax -->
<g id="node26" class="node"><title>\\Anax\\Kernel\\CAnax</title>
<polygon fill="none" stroke="black" points="683.923,-1490 629.923,-1490 629.923,-1454 683.923,-1454 683.923,-1490"/>
<text text-anchor="middle" x="656.923" y="-1469.2" font-family="Courier,monospace" font-size="11.00">CAnax</text>
</g>
<!-- \\Anax\\Kernel\\CAnaxSingleton&#45;&gt;\\Anax\\Kernel\\CAnax -->
<g id="edge7" class="edge"><title>\\Anax\\Kernel\\CAnaxSingleton&#45;&gt;\\Anax\\Kernel\\CAnax</title>
<path fill="none" stroke="black" d="M881.042,-1472C825.839,-1472 742.011,-1472 694.377,-1472"/>
<polygon fill="none" stroke="black" points="694.219,-1468.5 684.219,-1472 694.219,-1475.5 694.219,-1468.5"/>
</g>
<!-- \\Anax\\ISingleton -->
<g id="node39" class="node"><title>\\Anax\\ISingleton</title>
<polygon fill="none" stroke="black" points="698.923,-1562 614.923,-1562 614.923,-1526 698.923,-1526 698.923,-1562"/>
<text text-anchor="middle" x="656.923" y="-1541.2" font-family="Courier,monospace" font-size="11.00">ISingleton</text>
</g>
<!-- \\Anax\\Kernel\\CAnaxSingleton&#45;&gt;\\Anax\\ISingleton -->
<g id="edge8" class="edge"><title>\\Anax\\Kernel\\CAnaxSingleton&#45;&gt;\\Anax\\ISingleton</title>
<path fill="none" stroke="black" stroke-dasharray="1,5" d="M880.974,-1488.76C846.822,-1498.98 801.819,-1511.96 761.564,-1522 744.567,-1526.24 725.874,-1530.37 709.098,-1533.89"/>
<polygon fill="none" stroke="black" points="708.015,-1530.54 698.932,-1535.99 709.434,-1537.39 708.015,-1530.54"/>
</g>
<!-- \\Anax\\Session\\CSession -->
<g id="node27" class="node"><title>\\Anax\\Session\\CSession</title>
<polygon fill="none" stroke="black" points="972.064,-980 901.064,-980 901.064,-944 972.064,-944 972.064,-980"/>
<text text-anchor="middle" x="936.564" y="-959.2" font-family="Courier,monospace" font-size="11.00">CSession</text>
</g>
<!-- \\Anax\\ThemeEngine\\CThemeBasic -->
<g id="node28" class="node"><title>\\Anax\\ThemeEngine\\CThemeBasic</title>
<polygon fill="none" stroke="black" points="982.064,-900 891.064,-900 891.064,-864 982.064,-864 982.064,-900"/>
<text text-anchor="middle" x="936.564" y="-879.2" font-family="Courier,monospace" font-size="11.00">CThemeBasic</text>
</g>
<!-- \\Anax\\ThemeEngine\\CThemeBasic&#45;&gt;\\Anax\\DI\\IInjectionAware -->
<g id="edge10" class="edge"><title>\\Anax\\ThemeEngine\\CThemeBasic&#45;&gt;\\Anax\\DI\\IInjectionAware</title>
<path fill="none" stroke="black" stroke-dasharray="1,5" d="M890.923,-895.114C869.325,-903.135 844.123,-915.149 825.564,-932 783.404,-970.28 806.853,-1008.48 761.564,-1043 751.135,-1050.95 738.587,-1056.57 725.879,-1060.54"/>
<polygon fill="none" stroke="black" points="724.846,-1057.19 716.162,-1063.26 726.735,-1063.93 724.846,-1057.19"/>
</g>
<!-- \\Anax\\ThemeEngine\\IThemeEngine -->
<g id="node29" class="node"><title>\\Anax\\ThemeEngine\\IThemeEngine</title>
<polygon fill="none" stroke="black" points="705.923,-900 607.923,-900 607.923,-864 705.923,-864 705.923,-900"/>
<text text-anchor="middle" x="656.923" y="-879.2" font-family="Courier,monospace" font-size="11.00">IThemeEngine</text>
</g>
<!-- \\Anax\\ThemeEngine\\CThemeBasic&#45;&gt;\\Anax\\ThemeEngine\\IThemeEngine -->
<g id="edge9" class="edge"><title>\\Anax\\ThemeEngine\\CThemeBasic&#45;&gt;\\Anax\\ThemeEngine\\IThemeEngine</title>
<path fill="none" stroke="black" stroke-dasharray="1,5" d="M890.956,-882C843.533,-882 768.337,-882 716.246,-882"/>
<polygon fill="none" stroke="black" points="716.151,-878.5 706.151,-882 716.151,-885.5 716.151,-878.5"/>
</g>
<!-- \\Anax\\Content\\CFileContent -->
<g id="node30" class="node"><title>\\Anax\\Content\\CFileContent</title>
<polygon fill="none" stroke="black" points="985.564,-820 887.564,-820 887.564,-784 985.564,-784 985.564,-820"/>
<text text-anchor="middle" x="936.564" y="-799.2" font-family="Courier,monospace" font-size="11.00">CFileContent</text>
</g>
<!-- \\Anax\\Content\\CTextFilter -->
<g id="node31" class="node"><title>\\Anax\\Content\\CTextFilter</title>
<polygon fill="none" stroke="black" points="982.064,-766 891.064,-766 891.064,-730 982.064,-730 982.064,-766"/>
<text text-anchor="middle" x="936.564" y="-745.2" font-family="Courier,monospace" font-size="11.00">CTextFilter</text>
</g>
<!-- \\Anax\\Response\\CResponseBasic -->
<g id="node32" class="node"><title>\\Anax\\Response\\CResponseBasic</title>
<polygon fill="none" stroke="black" points="992.064,-686 881.064,-686 881.064,-650 992.064,-650 992.064,-686"/>
<text text-anchor="middle" x="936.564" y="-665.2" font-family="Courier,monospace" font-size="11.00">CResponseBasic</text>
</g>
<!-- \\Anax\\Request\\CRequestBasic -->
<g id="node33" class="node"><title>\\Anax\\Request\\CRequestBasic</title>
<polygon fill="none" stroke="black" points="988.564,-606 884.564,-606 884.564,-570 988.564,-570 988.564,-606"/>
<text text-anchor="middle" x="936.564" y="-585.2" font-family="Courier,monospace" font-size="11.00">CRequestBasic</text>
</g>
<!-- \\Anax\\Route\\CRouteBasic -->
<g id="node34" class="node"><title>\\Anax\\Route\\CRouteBasic</title>
<polygon fill="none" stroke="black" points="982.064,-526 891.064,-526 891.064,-490 982.064,-490 982.064,-526"/>
<text text-anchor="middle" x="936.564" y="-505.2" font-family="Courier,monospace" font-size="11.00">CRouteBasic</text>
</g>
<!-- \\Anax\\Route\\CRouterBasic -->
<g id="node35" class="node"><title>\\Anax\\Route\\CRouterBasic</title>
<polygon fill="none" stroke="black" points="985.564,-472 887.564,-472 887.564,-436 985.564,-436 985.564,-472"/>
<text text-anchor="middle" x="936.564" y="-451.2" font-family="Courier,monospace" font-size="11.00">CRouterBasic</text>
</g>
<!-- \\Anax\\Route\\CRouterBasic&#45;&gt;\\Anax\\DI\\IInjectionAware -->
<g id="edge17" class="edge"><title>\\Anax\\Route\\CRouterBasic&#45;&gt;\\Anax\\DI\\IInjectionAware</title>
<path fill="none" stroke="black" stroke-dasharray="1,5" d="M887.496,-453.895C865.463,-456.485 840.895,-463.582 825.564,-481 659.47,-669.708 926.318,-853.121 761.564,-1043 752.347,-1053.62 739.528,-1060.33 726.041,-1064.5"/>
<polygon fill="none" stroke="black" points="724.921,-1061.17 716.144,-1067.11 726.706,-1067.94 724.921,-1061.17"/>
</g>
<!-- \\Anax\\Navigation\\CNavbar -->
<g id="node36" class="node"><title>\\Anax\\Navigation\\CNavbar</title>
<polygon fill="none" stroke="black" points="968.564,-392 904.564,-392 904.564,-356 968.564,-356 968.564,-392"/>
<text text-anchor="middle" x="936.564" y="-371.2" font-family="Courier,monospace" font-size="11.00">CNavbar</text>
</g>
<!-- \\Anax\\Url\\CUrl -->
<g id="node37" class="node"><title>\\Anax\\Url\\CUrl</title>
<polygon fill="none" stroke="black" points="963.564,-312 909.564,-312 909.564,-276 963.564,-276 963.564,-312"/>
<text text-anchor="middle" x="936.564" y="-291.2" font-family="Courier,monospace" font-size="11.00">CUrl</text>
</g>
<!-- \\Exception -->
<g id="node44" class="node"><title>\\Exception</title>
<ellipse fill="none" stroke="black" cx="382.141" cy="-126" rx="48.9926" ry="18"/>
<text text-anchor="middle" x="382.141" y="-122.3" font-family="Times,serif" font-size="14.00" fill="gray">\Exception</text>
</g>
<!-- \\Anax\\Exception&#45;&gt;\\Exception -->
<g id="edge14" class="edge"><title>\\Anax\\Exception&#45;&gt;\\Exception</title>
<path fill="none" stroke="black" d="M644.904,-1774.79C623.131,-1737.86 574.765,-1650.84 552.283,-1571 474.815,-1295.9 513.382,-1215.87 480.283,-932 444.732,-627.102 399.362,-257.623 386.611,-154.127"/>
<polygon fill="none" stroke="black" points="390.079,-153.65 385.382,-144.153 383.132,-154.506 390.079,-153.65"/>
</g>
<!-- \\Anax\\TConfigure -->
<g id="node40" class="node"><title>\\Anax\\TConfigure</title>
<polygon fill="none" stroke="black" points="978.564,-258 894.564,-258 894.564,-222 978.564,-222 978.564,-258"/>
<text text-anchor="middle" x="936.564" y="-237.2" font-family="Courier,monospace" font-size="11.00">TConfigure</text>
</g>
<!-- \\Anax\\TSingleton -->
<g id="node41" class="node"><title>\\Anax\\TSingleton</title>
<polygon fill="none" stroke="black" points="978.564,-204 894.564,-204 894.564,-168 978.564,-168 978.564,-204"/>
<text text-anchor="middle" x="936.564" y="-183.2" font-family="Courier,monospace" font-size="11.00">TSingleton</text>
</g>
</g>
</svg>
